HIERARCHY
ROOT Hips
{
	OFFSET 0.000000 0.000000 0.000000
	CHANNELS 6 Xposition Yposition Zposition Zrotation Yrotation Xrotation 
	JOINT Spine1
	{
		OFFSET -0.013727 5.003763 -0.053727
		CHANNELS 3 Zrotation Yrotation Xrotation
		JOINT Spine2
		{
			OFFSET -0.000000 7.125302 -0.029825
			CHANNELS 3 Zrotation Yrotation Xrotation
			JOINT Chest
			{
				OFFSET -0.000001 7.550064 -0.815971
				CHANNELS 3 Zrotation Yrotation Xrotation
				JOINT Neck1
				{
					OFFSET -0.181676 26.311296 -0.553348
					CHANNELS 3 Zrotation Yrotation Xrotation
					JOINT Neck2
					{
						OFFSET -0.000003 7.709400 2.302586
						CHANNELS 3 Zrotation Yrotation Xrotation
						JOINT Head
						{
							OFFSET -0.000005 6.128913 1.953709
							CHANNELS 3 Zrotation Yrotation Xrotation
							JOINT HeadEnd
							{
								OFFSET 0.003598 16.065399 -1.835380
								CHANNELS 3 Zrotation Yrotation Xrotation
								End Site
								{
									OFFSET 0.000000 0.000000 0.000000
								}
							}
							JOINT Jaw
							{
								OFFSET 0.002637 0.475591 3.094941
								CHANNELS 3 Zrotation Yrotation Xrotation
								End Site
								{
									OFFSET 0.000000 0.000000 0.000000
								}
							}
							JOINT LeftEye
							{
								OFFSET 3.206381 5.380207 7.586883
								CHANNELS 3 Zrotation Yrotation Xrotation
								End Site
								{
									OFFSET 0.000000 0.000000 0.000000
								}
							}
							JOINT RightEye
							{
								OFFSET -3.222440 5.361866 7.558234
								CHANNELS 3 Zrotation Yrotation Xrotation
								End Site
								{
									OFFSET 0.000000 0.000000 0.000000
								}
							}
						}
					}
				}
				JOINT LeftShoulder
				{
					OFFSET 1.621652 23.237164 5.113413
					CHANNELS 3 Zrotation Yrotation Xrotation
					JOINT LeftArm
					{
						OFFSET 14.919845 0.000000 -5.502326
						CHANNELS 3 Zrotation Yrotation Xrotation
						JOINT LeftForeArm
						{
							OFFSET 28.739309 0.000003 -0.002588
							CHANNELS 3 Zrotation Yrotation Xrotation
							JOINT LeftHand
							{
								OFFSET 27.093979 -0.000003 0.002609
								CHANNELS 3 Zrotation Yrotation Xrotation
								JOINT LeftHandThumb1
								{
									OFFSET 2.276481 -1.392045 3.191413
									CHANNELS 3 Zrotation Yrotation Xrotation
									JOINT LeftHandThumb2
									{
										OFFSET 4.012841 -1.828126 1.641655
										CHANNELS 3 Zrotation Yrotation Xrotation
										JOINT LeftHandThumb3
										{
											OFFSET 2.798516 0.000001 -0.000003
											CHANNELS 3 Zrotation Yrotation Xrotation
											JOINT LeftHandThumbEnd
											{
												OFFSET 3.180791 -0.000003 0.000002
												CHANNELS 3 Zrotation Yrotation Xrotation
												End Site
												{
													OFFSET 0.000000 0.000000 0.000000
												}
											}
										}
									}
								}
								JOINT LeftHandIndex1
								{
									OFFSET 3.247554 -0.531998 2.296169
									CHANNELS 3 Zrotation Yrotation Xrotation
									JOINT LeftHandIndex2
									{
										OFFSET 6.364579 0.012062 0.178599
										CHANNELS 3 Zrotation Yrotation Xrotation
										JOINT LeftHandIndex3
										{
											OFFSET 3.662366 0.000001 0.000000
											CHANNELS 3 Zrotation Yrotation Xrotation
											JOINT LeftHandIndex4
											{
												OFFSET 2.329242 0.000002 0.000004
												CHANNELS 3 Zrotation Yrotation Xrotation
												JOINT LeftHandIndexEnd
												{
													OFFSET 2.759619 -0.180539 -0.113023
													CHANNELS 3 Zrotation Yrotation Xrotation
													End Site
													{
														OFFSET 0.000000 0.000000 0.000000
													}
												}
											}
										}
									}
								}
								JOINT LeftHandMiddle1
								{
									OFFSET 3.163499 0.240982 1.000332
									CHANNELS 3 Zrotation Yrotation Xrotation
									JOINT LeftHandMiddle2
									{
										OFFSET 6.190778 -0.259276 -1.002548
										CHANNELS 3 Zrotation Yrotation Xrotation
										JOINT LeftHandMiddle3
										{
											OFFSET 4.356522 -0.000006 0.000000
											CHANNELS 3 Zrotation Yrotation Xrotation
											JOINT LeftHandMiddle4
											{
												OFFSET 2.996875 -0.000006 0.000001
												CHANNELS 3 Zrotation Yrotation Xrotation
												JOINT LeftHandMiddleEnd
												{
													OFFSET 2.304294 -0.294571 -0.031740
													CHANNELS 3 Zrotation Yrotation Xrotation
													End Site
													{
														OFFSET 0.000000 0.000000 0.000000
													}
												}
											}
										}
									}
								}
								JOINT LeftHandRing1
								{
									OFFSET 2.882642 -0.053650 -0.322543
									CHANNELS 3 Zrotation Yrotation Xrotation
									JOINT LeftHandRing2
									{
										OFFSET 5.854543 -0.486203 -1.373841
										CHANNELS 3 Zrotation Yrotation Xrotation
										JOINT LeftHandRing3
										{
											OFFSET 4.350580 -0.000000 0.000004
											CHANNELS 3 Zrotation Yrotation Xrotation
											JOINT LeftHandRing4
											{
												OFFSET 2.651325 0.000007 0.000002
												CHANNELS 3 Zrotation Yrotation Xrotation
												JOINT LeftHandRingEnd
												{
													OFFSET 1.936111 0.077685 -0.000070
													CHANNELS 3 Zrotation Yrotation Xrotation
													End Site
													{
														OFFSET 0.000000 0.000000 0.000000
													}
												}
											}
										}
									}
								}
								JOINT LeftHandPinky1
								{
									OFFSET 2.865500 -0.310003 -1.600378
									CHANNELS 3 Zrotation Yrotation Xrotation
									JOINT LeftHandPinky2
									{
										OFFSET 5.087853 -1.331141 -1.771231
										CHANNELS 3 Zrotation Yrotation Xrotation
										JOINT LeftHandPinky3
										{
											OFFSET 3.070975 0.000003 0.000001
											CHANNELS 3 Zrotation Yrotation Xrotation
											JOINT LeftHandPinky4
											{
												OFFSET 1.549667 -0.000001 0.000001
												CHANNELS 3 Zrotation Yrotation Xrotation
												JOINT LeftHandPinkyEnd
												{
													OFFSET 1.944894 -0.157801 0.057219
													CHANNELS 3 Zrotation Yrotation Xrotation
													End Site
													{
														OFFSET 0.000000 0.000000 0.000000
													}
												}
											}
										}
									}
								}
							}
						}
					}
				}
				JOINT RightShoulder
				{
					OFFSET -1.380118 23.180309 5.214158
					CHANNELS 3 Zrotation Yrotation Xrotation
					JOINT RightArm
					{
						OFFSET -15.037197 0.000012 -5.545604
						CHANNELS 3 Zrotation Yrotation Xrotation
						JOINT RightForeArm
						{
							OFFSET -28.736639 0.000003 -0.002597
							CHANNELS 3 Zrotation Yrotation Xrotation
							JOINT RightHand
							{
								OFFSET -27.133617 -0.000000 0.002613
								CHANNELS 3 Zrotation Yrotation Xrotation
								JOINT RightHandThumb1
								{
									OFFSET -2.274036 -1.383990 3.163128
									CHANNELS 3 Zrotation Yrotation Xrotation
									JOINT RightHandThumb2
									{
										OFFSET -4.011428 -1.827467 1.640914
										CHANNELS 3 Zrotation Yrotation Xrotation
										JOINT RightHandThumb3
										{
											OFFSET -2.794934 -0.000004 -0.000004
											CHANNELS 3 Zrotation Yrotation Xrotation
											JOINT RightHandThumbEnd
											{
												OFFSET -3.183855 0.000004 0.000001
												CHANNELS 3 Zrotation Yrotation Xrotation
												End Site
												{
													OFFSET 0.000000 0.000000 0.000000
												}
											}
										}
									}
								}
								JOINT RightHandIndex1
								{
									OFFSET -3.253268 -0.520060 2.282866
									CHANNELS 3 Zrotation Yrotation Xrotation
									JOINT RightHandIndex2
									{
										OFFSET -6.341918 0.012473 0.178265
										CHANNELS 3 Zrotation Yrotation Xrotation
										JOINT RightHandIndex3
										{
											OFFSET -3.654875 -0.000009 -0.000001
											CHANNELS 3 Zrotation Yrotation Xrotation
											JOINT RightHandIndex4
											{
												OFFSET -2.327586 -0.000001 -0.000000
												CHANNELS 3 Zrotation Yrotation Xrotation
												JOINT RightHandIndexEnd
												{
													OFFSET -2.761789 -0.180657 -0.113078
													CHANNELS 3 Zrotation Yrotation Xrotation
													End Site
													{
														OFFSET 0.000000 0.000000 0.000000
													}
												}
											}
										}
									}
								}
								JOINT RightHandMiddle1
								{
									OFFSET -3.168106 0.246593 1.001030
									CHANNELS 3 Zrotation Yrotation Xrotation
									JOINT RightHandMiddle2
									{
										OFFSET -6.180830 -0.258836 -1.000896
										CHANNELS 3 Zrotation Yrotation Xrotation
										JOINT RightHandMiddle3
										{
											OFFSET -4.348906 -0.000000 -0.000000
											CHANNELS 3 Zrotation Yrotation Xrotation
											JOINT RightHandMiddle4
											{
												OFFSET -3.000243 -0.000003 -0.000003
												CHANNELS 3 Zrotation Yrotation Xrotation
												JOINT RightHandMiddleEnd
												{
													OFFSET -2.302517 -0.294371 -0.031706
													CHANNELS 3 Zrotation Yrotation Xrotation
													End Site
													{
														OFFSET 0.000000 0.000000 0.000000
													}
												}
											}
										}
									}
								}
								JOINT RightHandRing1
								{
									OFFSET -2.885693 -0.067953 -0.308858
									CHANNELS 3 Zrotation Yrotation Xrotation
									JOINT RightHandRing2
									{
										OFFSET -5.854196 -0.486132 -1.373732
										CHANNELS 3 Zrotation Yrotation Xrotation
										JOINT RightHandRing3
										{
											OFFSET -4.338814 -0.000003 -0.000000
											CHANNELS 3 Zrotation Yrotation Xrotation
											JOINT RightHandRing4
											{
												OFFSET -2.654905 -0.000005 0.000003
												CHANNELS 3 Zrotation Yrotation Xrotation
												JOINT RightHandRingEnd
												{
													OFFSET -1.933570 0.077524 -0.000052
													CHANNELS 3 Zrotation Yrotation Xrotation
													End Site
													{
														OFFSET 0.000000 0.000000 0.000000
													}
												}
											}
										}
									}
								}
								JOINT RightHandPinky1
								{
									OFFSET -2.866429 -0.342799 -1.584145
									CHANNELS 3 Zrotation Yrotation Xrotation
									JOINT RightHandPinky2
									{
										OFFSET -5.091370 -1.332053 -1.772385
										CHANNELS 3 Zrotation Yrotation Xrotation
										JOINT RightHandPinky3
										{
											OFFSET -3.062666 -0.000007 0.000000
											CHANNELS 3 Zrotation Yrotation Xrotation
											JOINT RightHandPinky4
											{
												OFFSET -1.546526 0.000007 -0.000003
												CHANNELS 3 Zrotation Yrotation Xrotation
												JOINT RightHandPinkyEnd
												{
													OFFSET -1.945122 -0.157721 0.057211
													CHANNELS 3 Zrotation Yrotation Xrotation
													End Site
													{
														OFFSET 0.000000 0.000000 0.000000
													}
												}
											}
										}
									}
								}
							}
						}
					}
				}
			}
		}
	}
	JOINT LeftLeg
	{
		OFFSET 10.043214 -8.434526 2.595654
		CHANNELS 3 Zrotation Yrotation Xrotation
		JOINT LeftShin
		{
			OFFSET -0.000002 -43.221752 -0.802913
			CHANNELS 3 Zrotation Yrotation Xrotation
			JOINT LeftFoot
			{
				OFFSET 0.000001 -42.155094 -3.481523
				CHANNELS 3 Zrotation Yrotation Xrotation
				JOINT LeftToeBase
				{
					OFFSET 0.000000 -5.059475 13.231529
					CHANNELS 3 Zrotation Yrotation Xrotation
					JOINT LeftToeEnd
					{
						OFFSET -0.009607 -1.647616 6.513017
						CHANNELS 3 Zrotation Yrotation Xrotation
						End Site
						{
							OFFSET 0.000000 0.000000 0.000000
						}
					}
				}
			}
		}
	}
	JOINT RightLeg
	{
		OFFSET -10.047277 -8.295259 2.620317
		CHANNELS 3 Zrotation Yrotation Xrotation
		JOINT RightShin
		{
			OFFSET 0.000001 -43.362209 -0.805556
			CHANNELS 3 Zrotation Yrotation Xrotation
			JOINT RightFoot
			{
				OFFSET 0.000003 -42.117393 -3.478398
				CHANNELS 3 Zrotation Yrotation Xrotation
				JOINT RightToeBase
				{
					OFFSET -0.000001 -5.079609 13.284196
					CHANNELS 3 Zrotation Yrotation Xrotation
					JOINT RightToeEnd
					{
						OFFSET 0.009532 -1.634384 6.460591
						CHANNELS 3 Zrotation Yrotation Xrotation
						End Site
						{
							OFFSET 0.000000 0.000000 0.000000
						}
					}
				}
			}
		}
	}
}
MOTION
Frames: 4
Frame Time: 0.033333
-3.290332 91.561775 1.649784 3.454797 0.707844 1.845386 2.085916 0.614092 4.713531 0.357249 1.965534 -3.078077 1.751105 -0.032193 10.511427 -18.242706 12.086672 9.104871 1.933809 9.372960 -3.491594 -3.790140 10.558311 -14.591534 0.000077 -0.000023 0.000006 -0.010001 0.008163 0.007738 0.699892 -3.753450 -10.672104 -0.730464 3.786393 -10.598571 -0.553019 -3.964901 10.633475 -45.990990 -26.937883 -23.089924 177.997726 -49.411247 -177.961288 14.609241 19.650080 22.202682 -5.882102 9.861278 0.702589 -10.936858 -0.360575 7.156199 0.000001 8.774814 -0.000001 -15.920434 18.167507 6.309222 -1.844030 2.498503 -2.507277 -10.163589 4.678939 4.621103 -20.975994 -0.000004 0.000004 -21.226250 2.451693 -3.593993 0.000001 -0.000006 0.000001 -1.362681 2.240796 -0.746323 -21.334890 0.584909 3.008320 -13.821197 -0.000003 0.000003 -23.887133 -0.249078 -0.839481 -61.189373 2.474383 -1.015435 -0.294023 1.679685 0.833255 -14.218194 0.093212 1.300579 -34.212013 -0.287565 0.967171 -20.033176 0.964535 1.212842 0.000002 0.000000 0.000001 -3.440385 0.788232 0.501655 -15.928169 -3.167307 2.999704 -6.338818 -0.000002 0.000001 -18.123415 3.648176 -4.905661 -0.000004 -0.000001 -0.000003 -0.008286 16.173965 12.276535 53.854568 63.404255 3.360248 -175.477173 59.045609 -176.781265 -13.383082 -10.735302 4.957059 2.243539 -5.255033 -3.180157 14.282879 -0.826594 6.952493 -0.000003 -12.690587 0.000001 16.205170 -17.879768 2.936555 1.665664 -1.955921 -2.878298 4.727796 -4.170584 4.993917 11.020512 0.000003 -0.000001 12.109032 -3.735708 -2.866781 0.000000 0.000000 0.000002 1.291983 -1.928547 -1.498087 14.800114 0.567468 3.865604 14.242554 -1.341733 -6.660647 19.631939 0.143926 -0.648240 49.889088 -0.315333 -5.810960 0.353029 -1.511150 -0.031940 20.222769 3.684306 2.316628 18.787247 0.000004 -0.000001 10.751612 -0.479867 1.397905 -0.000001 0.000000 -0.000001 3.273805 0.305947 -0.580112 21.486794 11.830362 2.266131 8.162916 0.000003 0.000000 18.399055 -3.798978 -4.940567 0.000002 0.000000 -0.000001 12.560690 15.102022 -29.290974 -0.459517 -0.987911 33.216595 -21.590382 -10.364401 1.469020 1.608821 -1.918763 -1.675828 -0.000000 0.000000 0.000002 -25.554148 -16.927189 -11.206120 0.728774 1.491130 47.580215 12.032216 23.835104 -7.438807 -1.464813 0.796329 -9.346427 -0.000000 -0.000000 -0.000001 
-3.278182 91.235451 1.704923 3.622041 0.518853 1.792313 2.055320 0.576341 4.800802 0.387499 1.900854 -3.055861 1.645035 -0.187219 10.796560 -18.500786 12.096892 8.771086 1.814906 9.491788 -3.483808 -3.843055 10.481932 -14.738605 0.000077 -0.000022 0.000006 -0.006878 0.061402 0.023833 0.707216 -3.719074 -10.694188 -0.732733 3.841218 -10.631243 -0.771228 -4.042682 10.725063 -45.838799 -26.911259 -23.154146 178.451370 -49.870419 -178.418732 14.529629 19.428066 22.157581 -5.882103 9.861280 0.702590 -10.936858 -0.360573 7.156197 -0.000002 8.774813 -0.000001 -15.923883 17.984930 6.279388 -1.844032 2.498505 -2.507275 -10.163591 4.678944 4.621104 -20.975996 -0.000000 0.000000 -21.226255 2.451695 -3.593997 0.000000 -0.000006 -0.000001 -1.362680 2.240798 -0.746325 -21.334890 0.584912 3.008320 -13.821194 -0.000001 0.000002 -23.887131 -0.249076 -0.839484 -61.358658 2.372740 -0.923140 -0.294024 1.679687 0.833255 -14.218194 0.093217 1.300579 -34.212006 -0.287561 0.967167 -20.033180 0.964535 1.212839 0.000001 0.000001 0.000002 -3.440386 0.788233 0.501654 -15.928167 -3.167306 2.999703 -6.338817 -0.000001 0.000002 -18.123411 3.648180 -4.905663 -0.000005 0.000001 -0.000003 0.015291 15.925584 12.291366 53.535095 63.995728 2.847608 -176.065659 59.315601 -177.240906 -13.022994 -10.374361 4.764699 2.243540 -5.255034 -3.180155 14.282875 -0.826593 6.952499 -0.000001 -12.690593 -0.000001 16.072281 -17.756504 2.969809 1.665664 -1.955919 -2.878298 4.727793 -4.170582 4.993919 11.020509 0.000003 -0.000001 12.109030 -3.735710 -2.866778 0.000000 -0.000000 0.000002 1.291985 -1.928550 -1.498089 14.800111 0.567466 3.865605 14.242553 -1.341736 -6.660648 19.631935 0.143924 -0.648244 49.926754 -0.444224 -5.761158 0.353028 -1.511150 -0.031939 20.222761 3.684304 2.316629 18.787243 0.000002 0.000001 10.751609 -0.479869 1.397903 -0.000001 -0.000000 -0.000001 3.273803 0.305947 -0.580111 21.486790 11.830360 2.266132 8.162916 0.000002 0.000000 18.399050 -3.798981 -4.940567 0.000003 0.000000 -0.000002 12.530790 14.952817 -29.630943 -0.432017 -0.886935 34.233234 -21.342596 -10.251326 0.549311 1.614752 -1.955545 -1.577104 -0.000000 0.000000 0.000002 -25.897753 -16.883152 -11.523710 0.737869 1.427251 48.363884 11.759595 24.319088 -8.206870 -1.451075 0.744301 -9.140385 -0.000000 -0.000000 -0.000001 
-3.311374 91.061829 1.724294 3.644880 0.403477 1.837752 2.006503 0.571472 4.800955 0.399157 1.772294 -3.073420 1.593321 -0.315348 10.955490 -18.586710 12.044804 8.625364 1.750745 9.535858 -3.497390 -3.729712 10.391108 -14.791613 0.000077 -0.000021 0.000006 -0.012774 0.109139 0.033754 0.695734 -3.667127 -10.707417 -0.733672 3.891788 -10.649735 -0.918254 -4.054752 10.774647 -45.870262 -26.988316 -23.136354 178.885361 -50.250778 -178.896530 14.264162 19.318342 22.084759 -5.882100 9.861278 0.702589 -10.936859 -0.360575 7.156198 0.000001 8.774814 0.000000 -15.893266 17.795021 6.166083 -1.844030 2.498502 -2.507275 -10.163589 4.678937 4.621104 -20.975998 -0.000005 0.000005 -21.226255 2.451691 -3.593991 0.000000 -0.000006 -0.000002 -1.362682 2.240797 -0.746321 -21.334896 0.584905 3.008322 -13.821197 -0.000002 0.000003 -23.887133 -0.249079 -0.839479 -61.216866 2.290297 -0.870859 -0.294023 1.679686 0.833253 -14.218194 0.093212 1.300580 -34.212006 -0.287565 0.967171 -20.033180 0.964534 1.212843 -0.000001 0.000000 0.000000 -3.440386 0.788232 0.501655 -15.928169 -3.167308 2.999703 -6.338817 -0.000002 0.000002 -18.123413 3.648175 -4.905658 -0.000004 -0.000001 -0.000003 0.068009 15.734591 12.347945 52.982342 64.247841 1.658397 -176.936905 59.584190 -177.899506 -12.645307 -10.126136 4.591772 2.243540 -5.255033 -3.180155 14.282878 -0.826592 6.952495 -0.000003 -12.690592 0.000001 15.799758 -17.658619 2.947600 1.665665 -1.955918 -2.878296 4.727793 -4.170583 4.993918 11.020512 0.000003 -0.000001 12.109033 -3.735708 -2.866779 0.000001 -0.000000 0.000001 1.291984 -1.928548 -1.498089 14.800113 0.567469 3.865603 14.242554 -1.341733 -6.660648 19.631937 0.143927 -0.648245 49.763142 -0.536350 -5.779612 0.353029 -1.511149 -0.031940 20.222767 3.684309 2.316627 18.787245 0.000008 0.000000 10.751608 -0.479866 1.397902 -0.000001 0.000000 0.000001 3.273804 0.305948 -0.580110 21.486792 11.830365 2.266129 8.162915 0.000004 0.000000 18.399048 -3.798976 -4.940567 0.000003 0.000001 -0.000002 12.617597 14.902604 -29.934179 -0.418192 -0.789472 34.853607 -21.284525 -10.147221 0.184683 1.605978 -1.960263 -1.515632 -0.000000 0.000000 0.000002 -25.982994 -16.994900 -11.744644 0.753548 1.375869 48.702049 11.446044 24.735510 -8.823371 -1.448173 0.745869 -9.133779 -0.000000 -0.000000 -0.000001 
-3.403554 91.039375 1.757749 3.477812 0.361725 2.036291 1.986147 0.535550 4.647992 0.386884 1.712768 -3.108520 1.570701 -0.435504 10.855016 -18.601316 12.012358 8.641369 1.744741 9.511069 -3.479746 -3.518193 10.325603 -14.592102 0.000077 -0.000024 0.000006 -0.021213 0.150650 0.040307 0.677045 -3.613626 -10.686285 -0.735395 3.932271 -10.638154 -1.023183 -3.947637 10.743630 -46.042355 -27.155294 -23.222488 179.512924 -50.389587 -179.508957 14.219875 19.112474 21.387680 -5.882101 9.861278 0.702590 -10.936860 -0.360572 7.156197 -0.000001 8.774814 -0.000001 -15.840707 17.673458 6.060045 -1.844029 2.498501 -2.507276 -10.163590 4.678941 4.621104 -20.975998 -0.000001 0.000001 -21.226255 2.451695 -3.593996 0.000000 -0.000007 -0.000002 -1.362681 2.240795 -0.746322 -21.334890 0.584910 3.008318 -13.821197 -0.000002 0.000001 -23.887129 -0.249080 -0.839481 -61.013187 2.286567 -0.847786 -0.294024 1.679687 0.833255 -14.218194 0.093215 1.300579 -34.212002 -0.287563 0.967167 -20.033180 0.964534 1.212841 -0.000001 0.000000 0.000001 -3.440386 0.788231 0.501655 -15.928167 -3.167305 2.999703 -6.338817 -0.000002 0.000002 -18.123415 3.648177 -4.905663 -0.000004 -0.000001 -0.000002 0.023762 15.596924 12.217037 52.928673 63.895363 0.799304 -177.673904 59.711285 -178.414566 -12.338817 -10.357042 4.143524 2.243540 -5.255032 -3.180154 14.282877 -0.826594 6.952495 -0.000002 -12.690592 0.000000 15.653348 -17.540400 2.930666 1.665665 -1.955920 -2.878297 4.727796 -4.170585 4.993917 11.020510 0.000004 -0.000001 12.109030 -3.735710 -2.866778 0.000000 -0.000000 -0.000001 1.291984 -1.928547 -1.498089 14.800111 0.567467 3.865603 14.242553 -1.341736 -6.660646 19.631939 0.143924 -0.648245 49.681534 -0.568447 -5.695322 0.353028 -1.511150 -0.031940 20.222767 3.684306 2.316627 18.787245 0.000003 -0.000001 10.751611 -0.479867 1.397903 0.000001 0.000000 0.000000 3.273804 0.305947 -0.580110 21.486790 11.830361 2.266131 8.162916 0.000002 0.000001 18.399052 -3.798979 -4.940567 0.000003 -0.000001 -0.000002 12.894175 14.923435 -30.046841 -0.423511 -0.770107 34.787628 -21.308788 -9.997556 0.046047 1.604644 -1.952539 -1.503969 -0.000000 0.000000 0.000002 -25.639503 -17.046379 -11.785631 0.736825 1.327391 48.303185 11.321891 24.869799 -9.695027 -1.451500 0.764636 -8.963601 -0.000000 -0.000000 -0.000001 
